<svg version="1.1" preserveAspectRatio="xMinYMin slice" xmlns="http://www.w3.org/2000/svg" width="390" height="312" viewBox="0 0 390 312"><!--{"isLandscape":true,"mapWidth":13,"mapHeight":12,"palette":["#FF0000","#FFC400","#F1DD7C","#CCCBC5","#FFF9CD","#CA4C99","#00D0FF","#008013","#FFFF00","#FF3200","#323232","#000000","#FFFFFF","#FF6000","#FFA500","#FF8C00","#F73718","#E25822"]}--><path d="M15 0 L0 26 L30 26 Z" fill="#323232" rel="0"></path><path d="M15 0 L30 26 L45 0 Z" fill="#323232" rel="1"></path><path d="M45 0 L30 26 L60 26 Z" fill="#323232" rel="2"></path><path d="M45 0 L60 26 L75 0 Z" fill="#323232" rel="3"></path><path d="M75 0 L60 26 L90 26 Z" fill="#323232" rel="4"></path><path d="M75 0 L90 26 L105 0 Z" fill="#323232" rel="5"></path><path d="M105 0 L90 26 L120 26 Z" fill="#FFFF00" rel="6"></path><path d="M105 0 L120 26 L135 0 Z" fill="#FFFF00" rel="7"></path><path d="M135 0 L120 26 L150 26 Z" fill="#FFFF00" rel="8"></path><path d="M135 0 L150 26 L165 0 Z" fill="#00D0FF" rel="9"></path><path d="M165 0 L150 26 L180 26 Z" fill="#00D0FF" rel="10"></path><path d="M165 0 L180 26 L195 0 Z" fill="#00D0FF" rel="11"></path><path d="M195 0 L180 26 L210 26 Z" fill="#00D0FF" rel="12"></path><path d="M195 0 L210 26 L225 0 Z" fill="#FFFFFF" rel="13"></path><path d="M225 0 L210 26 L240 26 Z" fill="#FFFFFF" rel="14"></path><path d="M225 0 L240 26 L255 0 Z" fill="#FFFFFF" rel="15"></path><path d="M255 0 L240 26 L270 26 Z" fill="#FFFFFF" rel="16"></path><path d="M255 0 L270 26 L285 0 Z" fill="#FFFFFF" rel="17"></path><path d="M285 0 L270 26 L300 26 Z" fill="#00D0FF" rel="18"></path><path d="M285 0 L300 26 L315 0 Z" fill="#323232" rel="19"></path><path d="M315 0 L300 26 L330 26 Z" fill="#323232" rel="20"></path><path d="M315 0 L330 26 L345 0 Z" fill="#323232" rel="21"></path><path d="M345 0 L330 26 L360 26 Z" fill="#323232" rel="22"></path><path d="M345 0 L360 26 L375 0 Z" fill="#323232" rel="23"></path><path d="M375 0 L360 26 L390 26 Z" fill="#323232" rel="24"></path><path d="M0 26 L15 52 L30 26 Z" fill="#323232" rel="25"></path><path d="M30 26 L15 52 L45 52 Z" fill="#323232" rel="26"></path><path d="M30 26 L45 52 L60 26 Z" fill="#323232" rel="27"></path><path d="M60 26 L45 52 L75 52 Z" fill="#323232" rel="28"></path><path d="M60 26 L75 52 L90 26 Z" fill="#323232" rel="29"></path><path d="M90 26 L75 52 L105 52 Z" fill="#00D0FF" rel="30"></path><path d="M90 26 L105 52 L120 26 Z" fill="#FFFF00" rel="31"></path><path d="M120 26 L105 52 L135 52 Z" fill="#FFFF00" rel="32"></path><path d="M120 26 L135 52 L150 26 Z" fill="#FFFF00" rel="33"></path><path d="M150 26 L135 52 L165 52 Z" fill="#00D0FF" rel="34"></path><path d="M150 26 L165 52 L180 26 Z" fill="#00D0FF" rel="35"></path><path d="M180 26 L165 52 L195 52 Z" fill="#00D0FF" rel="36"></path><path d="M180 26 L195 52 L210 26 Z" fill="#00D0FF" rel="37"></path><path d="M210 26 L195 52 L225 52 Z" fill="#F1DD7C" rel="38"></path><path d="M210 26 L225 52 L240 26 Z" fill="#00D0FF" rel="39"></path><path d="M240 26 L225 52 L255 52 Z" fill="#F1DD7C" rel="40"></path><path d="M240 26 L255 52 L270 26 Z" fill="#00D0FF" rel="41"></path><path d="M270 26 L255 52 L285 52 Z" fill="#00D0FF" rel="42"></path><path d="M270 26 L285 52 L300 26 Z" fill="#00D0FF" rel="43"></path><path d="M300 26 L285 52 L315 52 Z" fill="#00D0FF" rel="44"></path><path d="M300 26 L315 52 L330 26 Z" fill="#323232" rel="45"></path><path d="M330 26 L315 52 L345 52 Z" fill="#323232" rel="46"></path><path d="M330 26 L345 52 L360 26 Z" fill="#323232" rel="47"></path><path d="M360 26 L345 52 L375 52 Z" fill="#323232" rel="48"></path><path d="M360 26 L375 52 L390 26 Z" fill="#323232" rel="49"></path><path d="M15 52 L0 78 L30 78 Z" fill="#323232" rel="50"></path><path d="M15 52 L30 78 L45 52 Z" fill="#323232" rel="51"></path><path d="M45 52 L30 78 L60 78 Z" fill="#323232" rel="52"></path><path d="M45 52 L60 78 L75 52 Z" fill="#323232" rel="53"></path><path d="M75 52 L60 78 L90 78 Z" fill="#FFFFFF" rel="54"></path><path d="M75 52 L90 78 L105 52 Z" fill="#FFFFFF" rel="55"></path><path d="M105 52 L90 78 L120 78 Z" fill="#FFFFFF" rel="56"></path><path d="M105 52 L120 78 L135 52 Z" fill="#FFFFFF" rel="57"></path><path d="M135 52 L120 78 L150 78 Z" fill="#FFFFFF" rel="58"></path><path d="M135 52 L150 78 L165 52 Z" fill="#00D0FF" rel="59"></path><path d="M165 52 L150 78 L180 78 Z" fill="#00D0FF" rel="60"></path><path d="M165 52 L180 78 L195 52 Z" fill="#00D0FF" rel="61"></path><path d="M195 52 L180 78 L210 78 Z" fill="#FF0000" rel="62"></path><path d="M195 52 L210 78 L225 52 Z" fill="#FF0000" rel="63"></path><path d="M225 52 L210 78 L240 78 Z" fill="#FF0000" rel="64"></path><path d="M225 52 L240 78 L255 52 Z" fill="#FF0000" rel="65"></path><path d="M255 52 L240 78 L270 78 Z" fill="#FF0000" rel="66"></path><path d="M255 52 L270 78 L285 52 Z" fill="#00D0FF" rel="67"></path><path d="M285 52 L270 78 L300 78 Z" fill="#00D0FF" rel="68"></path><path d="M285 52 L300 78 L315 52 Z" fill="#00D0FF" rel="69"></path><path d="M315 52 L300 78 L330 78 Z" fill="#00D0FF" rel="70"></path><path d="M315 52 L330 78 L345 52 Z" fill="#323232" rel="71"></path><path d="M345 52 L330 78 L360 78 Z" fill="#323232" rel="72"></path><path d="M345 52 L360 78 L375 52 Z" fill="#323232" rel="73"></path><path d="M375 52 L360 78 L390 78 Z" fill="#323232" rel="74"></path><path d="M0 78 L15 104 L30 78 Z" fill="#323232" rel="75"></path><path d="M30 78 L15 104 L45 104 Z" fill="#323232" rel="76"></path><path d="M30 78 L45 104 L60 78 Z" fill="#323232" rel="77"></path><path d="M60 78 L45 104 L75 104 Z" fill="#00D0FF" rel="78"></path><path d="M60 78 L75 104 L90 78 Z" fill="#FFFFFF" rel="79"></path><path d="M90 78 L75 104 L105 104 Z" fill="#FFFFFF" rel="80"></path><path d="M90 78 L105 104 L120 78 Z" fill="#FFFFFF" rel="81"></path><path d="M120 78 L105 104 L135 104 Z" fill="#FFFFFF" rel="82"></path><path d="M120 78 L135 104 L150 78 Z" fill="#FFFFFF" rel="83"></path><path d="M150 78 L135 104 L165 104 Z" fill="#00D0FF" rel="84"></path><path d="M150 78 L165 104 L180 78 Z" fill="#F1DD7C" rel="85"></path><path d="M180 78 L165 104 L195 104 Z" fill="#FF0000" rel="86"></path><path d="M180 78 L195 104 L210 78 Z" fill="#FF0000" rel="87"></path><path d="M210 78 L195 104 L225 104 Z" fill="#FF0000" rel="88"></path><path d="M210 78 L225 104 L240 78 Z" rel="89"></path><path d="M240 78 L225 104 L255 104 Z" fill="#FF0000" rel="90"></path><path d="M240 78 L255 104 L270 78 Z" rel="91"></path><path d="M270 78 L255 104 L285 104 Z" fill="#FF0000" rel="92"></path><path d="M270 78 L285 104 L300 78 Z" fill="#00D0FF" rel="93"></path><path d="M300 78 L285 104 L315 104 Z" fill="#00D0FF" rel="94"></path><path d="M300 78 L315 104 L330 78 Z" fill="#00D0FF" rel="95"></path><path d="M330 78 L315 104 L345 104 Z" fill="#00D0FF" rel="96"></path><path d="M330 78 L345 104 L360 78 Z" fill="#323232" rel="97"></path><path d="M360 78 L345 104 L375 104 Z" fill="#323232" rel="98"></path><path d="M360 78 L375 104 L390 78 Z" fill="#323232" rel="99"></path><path d="M15 104 L0 130 L30 130 Z" fill="#323232" rel="100"></path><path d="M15 104 L30 130 L45 104 Z" fill="#323232" rel="101"></path><path d="M45 104 L30 130 L60 130 Z" fill="#00D0FF" rel="102"></path><path d="M45 104 L60 130 L75 104 Z" fill="#00D0FF" rel="103"></path><path d="M75 104 L60 130 L90 130 Z" fill="#00D0FF" rel="104"></path><path d="M75 104 L90 130 L105 104 Z" fill="#00D0FF" rel="105"></path><path d="M105 104 L90 130 L120 130 Z" fill="#00D0FF" rel="106"></path><path d="M105 104 L120 130 L135 104 Z" fill="#00D0FF" rel="107"></path><path d="M135 104 L120 130 L150 130 Z" fill="#00D0FF" rel="108"></path><path d="M135 104 L150 130 L165 104 Z" fill="#F1DD7C" rel="109"></path><path d="M165 104 L150 130 L180 130 Z" fill="#FF0000" rel="110"></path><path d="M165 104 L180 130 L195 104 Z" fill="#FF0000" rel="111"></path><path d="M195 104 L180 130 L210 130 Z" fill="#FF0000" rel="112"></path><path d="M195 104 L210 130 L225 104 Z" fill="#FF0000" rel="113"></path><path d="M225 104 L210 130 L240 130 Z" rel="114"></path><path d="M225 104 L240 130 L255 104 Z" fill="#FFF9CD" rel="115"></path><path d="M255 104 L240 130 L270 130 Z" rel="116"></path><path d="M255 104 L270 130 L285 104 Z" fill="#FFF9CD" rel="117"></path><path d="M285 104 L270 130 L300 130 Z" fill="#00D0FF" rel="118"></path><path d="M285 104 L300 130 L315 104 Z" fill="#00D0FF" rel="119"></path><path d="M315 104 L300 130 L330 130 Z" fill="#00D0FF" rel="120"></path><path d="M315 104 L330 130 L345 104 Z" fill="#00D0FF" rel="121"></path><path d="M345 104 L330 130 L360 130 Z" fill="#00D0FF" rel="122"></path><path d="M345 104 L360 130 L375 104 Z" fill="#323232" rel="123"></path><path d="M375 104 L360 130 L390 130 Z" fill="#323232" rel="124"></path><path d="M0 130 L15 156 L30 130 Z" fill="#323232" rel="125"></path><path d="M30 130 L15 156 L45 156 Z" fill="#00D0FF" rel="126"></path><path d="M30 130 L45 156 L60 130 Z" fill="#00D0FF" rel="127"></path><path d="M60 130 L45 156 L75 156 Z" fill="#00D0FF" rel="128"></path><path d="M60 130 L75 156 L90 130 Z" fill="#00D0FF" rel="129"></path><path d="M90 130 L75 156 L105 156 Z" fill="#00D0FF" rel="130"></path><path d="M90 130 L105 156 L120 130 Z" fill="#00D0FF" rel="131"></path><path d="M120 130 L105 156 L135 156 Z" fill="#F1DD7C" rel="132"></path><path d="M120 130 L135 156 L150 130 Z" fill="#00D0FF" rel="133"></path><path d="M150 130 L135 156 L165 156 Z" fill="#FF0000" rel="134"></path><path d="M150 130 L165 156 L180 130 Z" fill="#FF0000" rel="135"></path><path d="M180 130 L165 156 L195 156 Z" fill="#FF0000" rel="136"></path><path d="M180 130 L195 156 L210 130 Z" fill="#FF0000" rel="137"></path><path d="M210 130 L195 156 L225 156 Z" fill="#FF0000" rel="138"></path><path d="M210 130 L225 156 L240 130 Z" fill="#CA4C99" rel="139"></path><path d="M240 130 L225 156 L255 156 Z" fill="#FFF9CD" rel="140"></path><path d="M240 130 L255 156 L270 130 Z" fill="#CA4C99" rel="141"></path><path d="M270 130 L255 156 L285 156 Z" fill="#E25822" rel="142"></path><path d="M270 130 L285 156 L300 130 Z" fill="#FFA500" rel="143"></path><path d="M300 130 L285 156 L315 156 Z" fill="#FF8C00" rel="144"></path><path d="M300 130 L315 156 L330 130 Z" fill="#00D0FF" rel="145"></path><path d="M330 130 L315 156 L345 156 Z" fill="#00D0FF" rel="146"></path><path d="M330 130 L345 156 L360 130 Z" fill="#00D0FF" rel="147"></path><path d="M360 130 L345 156 L375 156 Z" fill="#00D0FF" rel="148"></path><path d="M360 130 L375 156 L390 130 Z" fill="#323232" rel="149"></path><path d="M15 156 L0 182 L30 182 Z" fill="#323232" rel="150"></path><path d="M15 156 L30 182 L45 156 Z" fill="#00D0FF" rel="151"></path><path d="M45 156 L30 182 L60 182 Z" fill="#F1DD7C" rel="152"></path><path d="M45 156 L60 182 L75 156 Z" fill="#00D0FF" rel="153"></path><path d="M75 156 L60 182 L90 182 Z" fill="#F1DD7C" rel="154"></path><path d="M75 156 L90 182 L105 156 Z" fill="#00D0FF" rel="155"></path><path d="M105 156 L90 182 L120 182 Z" fill="#FF0000" rel="156"></path><path d="M105 156 L120 182 L135 156 Z" fill="#FF0000" rel="157"></path><path d="M135 156 L120 182 L150 182 Z" fill="#FF0000" rel="158"></path><path d="M135 156 L150 182 L165 156 Z" fill="#FF0000" rel="159"></path><path d="M165 156 L150 182 L180 182 Z" fill="#FF0000" rel="160"></path><path d="M165 156 L180 182 L195 156 Z" fill="#FF0000" rel="161"></path><path d="M195 156 L180 182 L210 182 Z" fill="#FF0000" rel="162"></path><path d="M195 156 L210 182 L225 156 Z" fill="#FFC400" rel="163"></path><path d="M225 156 L210 182 L240 182 Z" fill="#00D0FF" rel="164"></path><path d="M225 156 L240 182 L255 156 Z" fill="#00D0FF" rel="165"></path><path d="M255 156 L240 182 L270 182 Z" fill="#00D0FF" rel="166"></path><path d="M255 156 L270 182 L285 156 Z" fill="#FF6000" rel="167"></path><path d="M285 156 L270 182 L300 182 Z" fill="#F73718" rel="168"></path><path d="M285 156 L300 182 L315 156 Z" fill="#00D0FF" rel="169"></path><path d="M315 156 L300 182 L330 182 Z" fill="#00D0FF" rel="170"></path><path d="M315 156 L330 182 L345 156 Z" fill="#00D0FF" rel="171"></path><path d="M345 156 L330 182 L360 182 Z" fill="#00D0FF" rel="172"></path><path d="M345 156 L360 182 L375 156 Z" fill="#00D0FF" rel="173"></path><path d="M375 156 L360 182 L390 182 Z" fill="#323232" rel="174"></path><path d="M0 182 L15 208 L30 182 Z" fill="#323232" rel="175"></path><path d="M30 182 L15 208 L45 208 Z" fill="#323232" rel="176"></path><path d="M30 182 L45 208 L60 182 Z" fill="#FF0000" rel="177"></path><path d="M60 182 L45 208 L75 208 Z" fill="#FF0000" rel="178"></path><path d="M60 182 L75 208 L90 182 Z" fill="#FF0000" rel="179"></path><path d="M90 182 L75 208 L105 208 Z" fill="#FF0000" rel="180"></path><path d="M90 182 L105 208 L120 182 Z" fill="#FF0000" rel="181"></path><path d="M120 182 L105 208 L135 208 Z" fill="#FF0000" rel="182"></path><path d="M120 182 L135 208 L150 182 Z" fill="#FF0000" rel="183"></path><path d="M150 182 L135 208 L165 208 Z" fill="#FF0000" rel="184"></path><path d="M150 182 L165 208 L180 182 Z" fill="#FF0000" rel="185"></path><path d="M180 182 L165 208 L195 208 Z" fill="#FFC400" rel="186"></path><path d="M180 182 L195 208 L210 182 Z" fill="#FF0000" rel="187"></path><path d="M210 182 L195 208 L225 208 Z" fill="#CCCBC5" rel="188"></path><path d="M210 182 L225 208 L240 182 Z" fill="#00D0FF" rel="189"></path><path d="M240 182 L225 208 L255 208 Z" fill="#00D0FF" rel="190"></path><path d="M240 182 L255 208 L270 182 Z" fill="#00D0FF" rel="191"></path><path d="M270 182 L255 208 L285 208 Z" fill="#00D0FF" rel="192"></path><path d="M270 182 L285 208 L300 182 Z" fill="#00D0FF" rel="193"></path><path d="M300 182 L285 208 L315 208 Z" fill="#FFFFFF" rel="194"></path><path d="M300 182 L315 208 L330 182 Z" fill="#FFFFFF" rel="195"></path><path d="M330 182 L315 208 L345 208 Z" fill="#FFFFFF" rel="196"></path><path d="M330 182 L345 208 L360 182 Z" fill="#FFFFFF" rel="197"></path><path d="M360 182 L345 208 L375 208 Z" fill="#323232" rel="198"></path><path d="M360 182 L375 208 L390 182 Z" fill="#323232" rel="199"></path><path d="M15 208 L0 234 L30 234 Z" fill="#323232" rel="200"></path><path d="M15 208 L30 234 L45 208 Z" fill="#323232" rel="201"></path><path d="M45 208 L30 234 L60 234 Z" fill="#323232" rel="202"></path><path d="M45 208 L60 234 L75 208 Z" fill="#00D0FF" rel="203"></path><path d="M75 208 L60 234 L90 234 Z" fill="#00D0FF" rel="204"></path><path d="M75 208 L90 234 L105 208 Z" fill="#FF0000" rel="205"></path><path d="M105 208 L90 234 L120 234 Z" fill="#FF0000" rel="206"></path><path d="M105 208 L120 234 L135 208 Z" fill="#FF0000" rel="207"></path><path d="M135 208 L120 234 L150 234 Z" fill="#FF0000" rel="208"></path><path d="M135 208 L150 234 L165 208 Z" fill="#FF0000" rel="209"></path><path d="M165 208 L150 234 L180 234 Z" fill="#FFC400" rel="210"></path><path d="M165 208 L180 234 L195 208 Z" fill="#FFC400" rel="211"></path><path d="M195 208 L180 234 L210 234 Z" fill="#00D0FF" rel="212"></path><path d="M195 208 L210 234 L225 208 Z" fill="#00D0FF" rel="213"></path><path d="M225 208 L210 234 L240 234 Z" fill="#00D0FF" rel="214"></path><path d="M225 208 L240 234 L255 208 Z" fill="#00D0FF" rel="215"></path><path d="M255 208 L240 234 L270 234 Z" fill="#00D0FF" rel="216"></path><path d="M255 208 L270 234 L285 208 Z" fill="#00D0FF" rel="217"></path><path d="M285 208 L270 234 L300 234 Z" fill="#00D0FF" rel="218"></path><path d="M285 208 L300 234 L315 208 Z" fill="#FFFFFF" rel="219"></path><path d="M315 208 L300 234 L330 234 Z" fill="#FFFFFF" rel="220"></path><path d="M315 208 L330 234 L345 208 Z" fill="#FFFFFF" rel="221"></path><path d="M345 208 L330 234 L360 234 Z" fill="#323232" rel="222"></path><path d="M345 208 L360 234 L375 208 Z" fill="#323232" rel="223"></path><path d="M375 208 L360 234 L390 234 Z" fill="#323232" rel="224"></path><path d="M0 234 L15 260 L30 234 Z" fill="#323232" rel="225"></path><path d="M30 234 L15 260 L45 260 Z" fill="#323232" rel="226"></path><path d="M30 234 L45 260 L60 234 Z" fill="#323232" rel="227"></path><path d="M60 234 L45 260 L75 260 Z" fill="#323232" rel="228"></path><path d="M60 234 L75 260 L90 234 Z" fill="#00D0FF" rel="229"></path><path d="M90 234 L75 260 L105 260 Z" fill="#00D0FF" rel="230"></path><path d="M90 234 L105 260 L120 234 Z" fill="#FF0000" rel="231"></path><path d="M120 234 L105 260 L135 260 Z" fill="#FF0000" rel="232"></path><path d="M120 234 L135 260 L150 234 Z" fill="#FF0000" rel="233"></path><path d="M150 234 L135 260 L165 260 Z" fill="#FFC400" rel="234"></path><path d="M150 234 L165 260 L180 234 Z" fill="#FFC400" rel="235"></path><path d="M180 234 L165 260 L195 260 Z" fill="#FF0000" rel="236"></path><path d="M180 234 L195 260 L210 234 Z" fill="#00D0FF" rel="237"></path><path d="M210 234 L195 260 L225 260 Z" fill="#00D0FF" rel="238"></path><path d="M210 234 L225 260 L240 234 Z" fill="#00D0FF" rel="239"></path><path d="M240 234 L225 260 L255 260 Z" fill="#00D0FF" rel="240"></path><path d="M240 234 L255 260 L270 234 Z" fill="#00D0FF" rel="241"></path><path d="M270 234 L255 260 L285 260 Z" fill="#00D0FF" rel="242"></path><path d="M270 234 L285 260 L300 234 Z" fill="#00D0FF" rel="243"></path><path d="M300 234 L285 260 L315 260 Z" fill="#00D0FF" rel="244"></path><path d="M300 234 L315 260 L330 234 Z" fill="#00D0FF" rel="245"></path><path d="M330 234 L315 260 L345 260 Z" fill="#323232" rel="246"></path><path d="M330 234 L345 260 L360 234 Z" fill="#323232" rel="247"></path><path d="M360 234 L345 260 L375 260 Z" fill="#323232" rel="248"></path><path d="M360 234 L375 260 L390 234 Z" fill="#323232" rel="249"></path><path d="M15 260 L0 286 L30 286 Z" fill="#323232" rel="250"></path><path d="M15 260 L30 286 L45 260 Z" fill="#323232" rel="251"></path><path d="M45 260 L30 286 L60 286 Z" fill="#323232" rel="252"></path><path d="M45 260 L60 286 L75 260 Z" fill="#323232" rel="253"></path><path d="M75 260 L60 286 L90 286 Z" fill="#323232" rel="254"></path><path d="M75 260 L90 286 L105 260 Z" fill="#008013" rel="255"></path><path d="M105 260 L90 286 L120 286 Z" fill="#FF0000" rel="256"></path><path d="M105 260 L120 286 L135 260 Z" fill="#FF0000" rel="257"></path><path d="M135 260 L120 286 L150 286 Z" fill="#008013" rel="258"></path><path d="M135 260 L150 286 L165 260 Z" fill="#008013" rel="259"></path><path d="M165 260 L150 286 L180 286 Z" fill="#FF0000" rel="260"></path><path d="M165 260 L180 286 L195 260 Z" fill="#FF0000" rel="261"></path><path d="M195 260 L180 286 L210 286 Z" fill="#008013" rel="262"></path><path d="M195 260 L210 286 L225 260 Z" fill="#008013" rel="263"></path><path d="M225 260 L210 286 L240 286 Z" fill="#008013" rel="264"></path><path d="M225 260 L240 286 L255 260 Z" fill="#008013" rel="265"></path><path d="M255 260 L240 286 L270 286 Z" fill="#008013" rel="266"></path><path d="M255 260 L270 286 L285 260 Z" fill="#008013" rel="267"></path><path d="M285 260 L270 286 L300 286 Z" fill="#008013" rel="268"></path><path d="M285 260 L300 286 L315 260 Z" fill="#008013" rel="269"></path><path d="M315 260 L300 286 L330 286 Z" fill="#323232" rel="270"></path><path d="M315 260 L330 286 L345 260 Z" fill="#323232" rel="271"></path><path d="M345 260 L330 286 L360 286 Z" fill="#323232" rel="272"></path><path d="M345 260 L360 286 L375 260 Z" fill="#323232" rel="273"></path><path d="M375 260 L360 286 L390 286 Z" fill="#323232" rel="274"></path><path d="M0 286 L15 312 L30 286 Z" fill="#323232" rel="275"></path><path d="M30 286 L15 312 L45 312 Z" fill="#323232" rel="276"></path><path d="M30 286 L45 312 L60 286 Z" fill="#323232" rel="277"></path><path d="M60 286 L45 312 L75 312 Z" fill="#323232" rel="278"></path><path d="M60 286 L75 312 L90 286 Z" fill="#323232" rel="279"></path><path d="M90 286 L75 312 L105 312 Z" fill="#323232" rel="280"></path><path d="M90 286 L105 312 L120 286 Z" fill="#FF0000" rel="281"></path><path d="M120 286 L105 312 L135 312 Z" fill="#FF0000" rel="282"></path><path d="M120 286 L135 312 L150 286 Z" fill="#FF0000" rel="283"></path><path d="M150 286 L135 312 L165 312 Z" fill="#CCCBC5" rel="284"></path><path d="M150 286 L165 312 L180 286 Z" fill="#FF0000" rel="285"></path><path d="M180 286 L165 312 L195 312 Z" fill="#FF0000" rel="286"></path><path d="M180 286 L195 312 L210 286 Z" fill="#FF0000" rel="287"></path><path d="M210 286 L195 312 L225 312 Z" fill="#CCCBC5" rel="288"></path><path d="M210 286 L225 312 L240 286 Z" fill="#008013" rel="289"></path><path d="M240 286 L225 312 L255 312 Z" fill="#008013" rel="290"></path><path d="M240 286 L255 312 L270 286 Z" fill="#008013" rel="291"></path><path d="M270 286 L255 312 L285 312 Z" fill="#008013" rel="292"></path><path d="M270 286 L285 312 L300 286 Z" fill="#008013" rel="293"></path><path d="M300 286 L285 312 L315 312 Z" fill="#323232" rel="294"></path><path d="M300 286 L315 312 L330 286 Z" fill="#323232" rel="295"></path><path d="M330 286 L315 312 L345 312 Z" fill="#323232" rel="296"></path><path d="M330 286 L345 312 L360 286 Z" fill="#323232" rel="297"></path><path d="M360 286 L345 312 L375 312 Z" fill="#323232" rel="298"></path><path d="M360 286 L375 312 L390 286 Z" fill="#323232" rel="299"></path></svg>